<?xml version="1.0" encoding="UTF-8"?>
<svg width="1200" height="600" xmlns="http://www.w3.org/2000/svg" viewBox="0 0 1200 600">
<rect width="1200" height="600" fill="#f5f5f0"/>
<line x1="0" y1="500" x2="1200" y2="500" stroke="#8b7355" stroke-width="2"/>
<path d="M 92.24,377.87 L 89.92,374.17 L 81.90,369.55 L 51.98,330.85 L 53.82,320.38 L 55.67,314.24 L 57.52,310.62 L 59.37,307.57 L 61.21,303.96 L 63.06,298.89 L 64.91,291.63 L 66.75,282.87 L 68.60,275.19 L 70.45,270.73 L 72.29,268.22 L 74.14,264.28 L 75.99,257.82 L 77.84,251.53 L 79.68,248.37 L 81.53,247.95 L 83.38,247.52 L 85.22,245.72 L 87.07,243.10 L 88.92,239.58 L 90.76,234.79 L 92.61,230.79 L 94.46,230.91 L 96.31,234.63 L 98.15,237.02 L 100.00,234.17 L 101.85,227.10 L 103.69,220.67 L 105.54,220.00 L 107.39,220.00 L 109.24,220.00 L 111.08,220.00 L 112.93,220.00 L 114.78,225.30 L 116.62,232.54 L 118.47,237.89 L 120.32,241.18 L 122.16,244.89 L 124.01,250.48 L 125.86,257.25 L 127.71,264.72 L 129.55,273.57 L 131.40,283.58 L 133.25,292.55 L 135.09,298.40 L 136.94,301.46 L 138.79,304.11 L 140.63,308.33 L 142.48,314.52 L 144.33,322.45 L 146.18,332.47 L 148.02,344.68 L 118.10,369.55 L 110.08,374.17 L 107.76,377.87 Z" fill="#8bc68b" stroke="#6da86d" stroke-width="0.5" opacity="0.95"/>
<rect x="95.66181847556416" y="374.1720073606908" width="8.676363048871666" height="125.82799263930914" fill="#8b6f47" stroke="#6b5637" stroke-width="0.5"/>
<text x="100" y="540" text-anchor="middle" font-size="14" font-weight="bold" fill="#333">Bu</text>
<text x="100" y="556" text-anchor="middle" font-size="11" fill="#666">Buche</text>
<text x="100" y="570" text-anchor="middle" font-size="10" fill="#999">35m</text>
<path d="M 145.78,328.82 L 147.00,324.54 L 148.23,319.07 L 149.45,313.03 L 150.67,306.59 L 151.89,299.89 L 153.11,293.08 L 154.34,286.33 L 155.56,279.71 L 156.78,273.22 L 158.00,266.73 L 159.22,260.09 L 160.45,253.20 L 161.67,246.11 L 162.89,239.07 L 164.11,232.45 L 165.33,226.71 L 166.56,222.13 L 167.78,218.80 L 169.00,216.47 L 170.22,214.64 L 171.45,212.72 L 172.67,210.20 L 173.89,206.86 L 175.11,202.84 L 176.33,198.62 L 177.56,194.83 L 178.78,192.12 L 180.00,190.88 L 181.22,191.21 L 182.44,192.87 L 183.67,195.43 L 184.89,198.41 L 186.11,201.49 L 187.33,204.58 L 188.55,207.80 L 189.78,211.41 L 191.00,215.62 L 192.22,220.52 L 193.44,225.99 L 194.67,231.77 L 195.89,237.54 L 197.11,243.06 L 198.33,248.28 L 199.55,253.35 L 200.78,258.57 L 202.00,264.23 L 203.22,270.54 L 204.44,277.51 L 205.66,284.95 L 206.89,292.55 L 208.11,299.98 L 209.33,306.99 L 210.55,313.46 L 211.77,319.36 L 213.00,324.67 L 214.22,328.82 Z" fill="#5b9b8b" stroke="#488878" stroke-width="0.5" opacity="0.95"/>
<rect x="175.77655906451398" y="328.82417408101514" width="8.44688187097205" height="171.17582591898486" fill="#8b6f47" stroke="#6b5637" stroke-width="0.5"/>
<text x="180" y="540" text-anchor="middle" font-size="14" font-weight="bold" fill="#333">Ta</text>
<text x="180" y="556" text-anchor="middle" font-size="11" fill="#666">Weisstanne</text>
<text x="180" y="570" text-anchor="middle" font-size="10" fill="#999">40m</text>
<path d="M 236.13,319.18 L 236.98,317.68 L 237.83,314.96 L 238.68,311.42 L 239.54,307.24 L 240.39,302.55 L 241.24,297.48 L 242.10,292.15 L 242.95,286.63 L 243.80,280.92 L 244.65,274.99 L 245.51,268.83 L 246.36,262.51 L 247.21,256.22 L 248.06,250.25 L 248.92,244.86 L 249.77,240.25 L 250.62,236.40 L 251.47,233.09 L 252.33,229.95 L 253.18,226.58 L 254.03,222.76 L 254.88,218.49 L 255.74,214.08 L 256.59,210.02 L 257.44,206.84 L 258.29,204.93 L 259.15,204.42 L 260.00,205.12 L 260.85,206.65 L 261.71,208.57 L 262.56,210.54 L 263.41,212.43 L 264.26,214.35 L 265.12,216.54 L 265.97,219.26 L 266.82,222.64 L 267.67,226.66 L 268.53,231.15 L 269.38,235.88 L 270.23,240.68 L 271.08,245.50 L 271.94,250.43 L 272.79,255.64 L 273.64,261.28 L 274.49,267.37 L 275.35,273.80 L 276.20,280.35 L 277.05,286.72 L 277.90,292.70 L 278.76,298.15 L 279.61,303.06 L 280.46,307.47 L 281.32,311.43 L 282.17,314.88 L 283.02,317.64 L 283.87,319.18 Z" fill="#7a9ec8" stroke="#6088b0" stroke-width="0.5" opacity="0.95"/>
<rect x="256.3879402853285" y="319.1803155467144" width="7.224119429342986" height="180.81968445328562" fill="#8b6f47" stroke="#6b5637" stroke-width="0.5"/>
<text x="260" y="540" text-anchor="middle" font-size="14" font-weight="bold" fill="#333">Fi</text>
<text x="260" y="556" text-anchor="middle" font-size="11" fill="#666">Fichte</text>
<text x="260" y="570" text-anchor="middle" font-size="10" fill="#999">38m</text>
<path d="M 332.41,381.88 L 324.18,375.79 L 291.03,352.54 L 292.91,344.12 L 294.80,335.79 L 296.68,327.45 L 298.56,319.59 L 300.45,313.03 L 302.33,308.46 L 304.21,305.91 L 306.10,304.78 L 307.98,304.10 L 309.87,303.11 L 311.75,301.51 L 313.63,299.45 L 315.52,297.26 L 317.40,295.22 L 319.28,293.49 L 321.17,292.18 L 323.05,291.39 L 324.93,291.14 L 326.82,291.29 L 328.70,291.41 L 330.58,290.95 L 332.47,289.64 L 334.35,287.77 L 336.23,286.06 L 338.12,285.25 L 340.00,285.60 L 341.88,286.67 L 343.77,287.76 L 345.65,288.34 L 347.53,288.43 L 349.42,288.39 L 351.30,288.52 L 353.18,288.75 L 355.07,288.68 L 356.95,287.92 L 358.83,286.61 L 360.72,285.64 L 362.60,286.19 L 364.48,288.97 L 366.37,293.69 L 368.25,299.34 L 370.13,304.95 L 372.02,310.04 L 373.90,314.55 L 375.79,318.47 L 377.67,321.71 L 379.55,324.26 L 381.44,326.37 L 383.32,328.63 L 385.20,331.85 L 387.09,336.80 L 388.97,344.09 L 355.82,375.79 L 347.59,381.88 Z" fill="#c8b86a" stroke="#b0a050" stroke-width="0.5" opacity="0.95"/>
<rect x="336.38881206111694" y="381.8827827206768" width="7.222375877766132" height="118.11721727932323" fill="#8b6f47" stroke="#6b5637" stroke-width="0.5"/>
<text x="340" y="540" text-anchor="middle" font-size="14" font-weight="bold" fill="#333">Ei</text>
<text x="340" y="556" text-anchor="middle" font-size="11" fill="#666">Eiche (ssp.)</text>
<text x="340" y="570" text-anchor="middle" font-size="10" fill="#999">30m</text>
<path d="M 411.55,394.00 L 409.86,392.15 L 404.98,389.50 L 376.41,371.38 L 378.09,361.24 L 379.76,351.03 L 381.44,341.71 L 383.12,334.34 L 384.79,329.40 L 386.47,326.52 L 388.15,324.68 L 389.82,322.73 L 391.50,319.90 L 393.18,315.95 L 394.85,311.11 L 396.53,305.78 L 398.20,300.33 L 399.88,294.96 L 401.56,289.75 L 403.23,284.86 L 404.91,280.62 L 406.59,277.48 L 408.26,275.75 L 409.94,275.31 L 411.62,275.65 L 413.29,276.05 L 414.97,275.90 L 416.65,274.83 L 418.32,272.70 L 420.00,269.51 L 421.68,265.61 L 423.35,262.14 L 425.03,260.93 L 426.71,263.40 L 428.38,269.25 L 430.06,276.63 L 431.74,283.50 L 433.41,288.84 L 435.09,292.81 L 436.77,296.10 L 438.44,299.38 L 440.12,303.00 L 441.80,307.03 L 443.47,311.34 L 445.15,315.64 L 446.82,319.52 L 448.50,322.59 L 450.18,324.55 L 451.85,325.46 L 453.53,326.01 L 455.21,327.58 L 456.88,331.66 L 458.56,338.99 L 460.24,349.04 L 461.91,360.31 L 463.59,371.35 L 435.02,389.50 L 430.14,392.15 L 428.45,394.00 Z" fill="#d4a0b0" stroke="#c08898" stroke-width="0.5" opacity="0.95"/>
<rect x="415.86214590341496" y="392.1474348805922" width="8.275708193170077" height="107.85256511940784" fill="#8b6f47" stroke="#6b5637" stroke-width="0.5"/>
<text x="420" y="540" text-anchor="middle" font-size="14" font-weight="bold" fill="#333">BAh</text>
<text x="420" y="556" text-anchor="middle" font-size="11" fill="#666">Bergahorn</text>
<text x="420" y="570" text-anchor="middle" font-size="10" fill="#999">30m</text>
<path d="M 463.42,361.02 L 464.73,350.59 L 466.04,344.64 L 467.34,339.68 L 468.65,335.29 L 469.96,331.33 L 471.26,327.73 L 472.57,324.45 L 473.87,321.44 L 475.18,318.65 L 476.49,316.00 L 477.79,313.44 L 479.10,310.93 L 480.41,308.46 L 481.71,306.05 L 483.02,303.80 L 484.32,301.77 L 485.63,300.08 L 486.94,298.77 L 488.24,297.88 L 489.55,297.38 L 490.86,297.18 L 492.16,297.15 L 493.47,297.15 L 494.77,297.06 L 496.08,296.77 L 497.39,296.26 L 498.69,295.55 L 500.00,294.74 L 501.31,293.95 L 502.61,293.34 L 503.92,293.03 L 505.23,293.11 L 506.53,293.61 L 507.84,294.50 L 509.14,295.72 L 510.45,297.17 L 511.76,298.74 L 513.06,300.35 L 514.37,301.96 L 515.68,303.56 L 516.98,305.21 L 518.29,306.94 L 519.59,308.84 L 520.90,310.95 L 522.21,313.30 L 523.51,315.89 L 524.82,318.69 L 526.13,321.66 L 527.43,324.78 L 528.74,328.04 L 530.04,331.49 L 531.35,335.21 L 532.66,339.37 L 533.96,344.19 L 535.27,350.19 L 536.58,361.02 Z" fill="#c8a87a" stroke="#b09060" stroke-width="0.5" opacity="0.95"/>
<rect x="496.0501035415275" y="361.0162378248685" width="7.899792916944987" height="138.98376217513152" fill="#8b6f47" stroke="#6b5637" stroke-width="0.5"/>
<text x="500" y="540" text-anchor="middle" font-size="14" font-weight="bold" fill="#333">WFoe</text>
<text x="500" y="556" text-anchor="middle" font-size="11" fill="#666">Waldföhre</text>
<text x="500" y="570" text-anchor="middle" font-size="10" fill="#999">28m</text>
<path d="M 544.77,333.46 L 546.03,331.06 L 547.29,327.57 L 548.54,323.55 L 549.80,319.16 L 551.06,314.51 L 552.32,309.63 L 553.58,304.53 L 554.84,299.22 L 556.09,293.76 L 557.35,288.24 L 558.61,282.79 L 559.87,277.58 L 561.13,272.77 L 562.39,268.42 L 563.64,264.54 L 564.90,261.04 L 566.16,257.74 L 567.42,254.49 L 568.68,251.15 L 569.93,247.69 L 571.19,244.21 L 572.45,240.86 L 573.71,237.88 L 574.97,235.46 L 576.23,233.74 L 577.48,232.73 L 578.74,232.38 L 580.00,232.54 L 581.26,233.07 L 582.52,233.88 L 583.77,234.93 L 585.03,236.27 L 586.29,237.99 L 587.55,240.17 L 588.81,242.86 L 590.07,246.01 L 591.32,249.53 L 592.58,253.28 L 593.84,257.12 L 595.10,260.97 L 596.36,264.85 L 597.61,268.81 L 598.87,272.99 L 600.13,277.48 L 601.39,282.34 L 602.65,287.57 L 603.91,293.05 L 605.16,298.65 L 606.42,304.20 L 607.68,309.55 L 608.94,314.61 L 610.20,319.33 L 611.46,323.69 L 612.71,327.65 L 613.97,331.08 L 615.23,333.46 Z" fill="#b8d080" stroke="#a0b868" stroke-width="0.5" opacity="0.95"/>
<rect x="575.1918591402505" y="333.4555537930264" width="9.616281719498945" height="166.5444462069736" fill="#8b6f47" stroke="#6b5637" stroke-width="0.5"/>
<text x="580" y="540" text-anchor="middle" font-size="14" font-weight="bold" fill="#333">Lae</text>
<text x="580" y="556" text-anchor="middle" font-size="11" fill="#666">Lärche</text>
<text x="580" y="570" text-anchor="middle" font-size="10" fill="#999">35m</text>
<path d="M 650.49,374.01 L 646.68,363.61 L 624.66,363.88 L 626.02,358.22 L 627.38,352.42 L 628.74,346.59 L 630.10,340.78 L 631.46,335.03 L 632.82,329.32 L 634.18,323.62 L 635.53,317.89 L 636.89,312.10 L 638.25,306.28 L 639.61,300.50 L 640.97,294.90 L 642.33,289.67 L 643.69,285.00 L 645.05,281.06 L 646.41,277.94 L 647.77,275.66 L 649.13,274.10 L 650.49,273.05 L 651.84,272.26 L 653.20,271.45 L 654.56,270.39 L 655.92,268.94 L 657.28,267.09 L 658.64,264.96 L 660.00,262.79 L 661.36,260.89 L 662.72,259.56 L 664.08,259.09 L 665.44,259.65 L 666.80,261.28 L 668.16,263.91 L 669.51,267.37 L 670.87,271.41 L 672.23,275.78 L 673.59,280.27 L 674.95,284.73 L 676.31,289.12 L 677.67,293.46 L 679.03,297.82 L 680.39,302.33 L 681.75,307.06 L 683.11,312.09 L 684.47,317.40 L 685.82,322.97 L 687.18,328.73 L 688.54,334.58 L 689.90,340.47 L 691.26,346.34 L 692.62,352.16 L 693.98,357.93 L 695.34,363.62 L 673.32,363.61 L 669.51,374.01 Z" fill="#a8b8d0" stroke="#90a0b8" stroke-width="0.5" opacity="0.95"/>
<rect x="656.6331055878386" y="374.0083015687219" width="6.7337888243228745" height="125.99169843127811" fill="#8b6f47" stroke="#6b5637" stroke-width="0.5"/>
<text x="660" y="540" text-anchor="middle" font-size="14" font-weight="bold" fill="#333">Es</text>
<text x="660" y="556" text-anchor="middle" font-size="11" fill="#666">Esche</text>
<text x="660" y="570" text-anchor="middle" font-size="10" fill="#999">32m</text>
<path d="M 709.11,300.15 L 710.21,298.48 L 711.31,295.45 L 712.42,291.56 L 713.52,286.96 L 714.62,281.74 L 715.73,276.00 L 716.83,269.88 L 717.93,263.59 L 719.04,257.39 L 720.14,251.46 L 721.24,245.83 L 722.35,240.40 L 723.45,234.92 L 724.55,229.11 L 725.66,222.78 L 726.76,215.96 L 727.86,208.93 L 728.97,202.14 L 730.07,196.08 L 731.17,191.13 L 732.28,187.40 L 733.38,184.75 L 734.48,182.84 L 735.59,181.25 L 736.69,179.71 L 737.79,178.16 L 738.90,176.76 L 740.00,175.82 L 741.10,175.61 L 742.21,176.29 L 743.31,177.78 L 744.41,179.86 L 745.52,182.24 L 746.62,184.74 L 747.72,187.36 L 748.83,190.32 L 749.93,193.97 L 751.03,198.58 L 752.14,204.31 L 753.24,211.02 L 754.34,218.37 L 755.45,225.90 L 756.55,233.20 L 757.65,240.01 L 758.76,246.30 L 759.86,252.23 L 760.96,258.00 L 762.07,263.82 L 763.17,269.75 L 764.27,275.68 L 765.38,281.45 L 766.48,286.80 L 767.58,291.53 L 768.69,295.49 L 769.79,298.51 L 770.89,300.15 Z" fill="#6aaa6a" stroke="#508850" stroke-width="0.5" opacity="0.95"/>
<rect x="735.526147223714" y="300.1466645516317" width="8.947705552572055" height="199.8533354483683" fill="#8b6f47" stroke="#6b5637" stroke-width="0.5"/>
<text x="740" y="540" text-anchor="middle" font-size="14" font-weight="bold" fill="#333">Dou</text>
<text x="740" y="556" text-anchor="middle" font-size="11" fill="#666">Douglasie</text>
<text x="740" y="570" text-anchor="middle" font-size="10" fill="#999">42m</text>
<path d="M 811.39,400.46 L 807.08,395.91 L 798.47,394.39 L 775.98,368.97 L 777.89,357.71 L 779.81,344.90 L 781.72,333.85 L 783.63,326.34 L 785.55,317.46 L 787.46,303.72 L 789.38,289.30 L 791.29,281.38 L 793.20,281.46 L 795.12,284.80 L 797.03,287.59 L 798.95,289.67 L 800.86,290.53 L 802.77,287.80 L 804.69,281.72 L 806.60,277.79 L 808.52,279.73 L 810.43,282.70 L 812.34,280.00 L 814.26,271.92 L 816.17,264.68 L 818.09,262.70 L 820.00,264.09 L 821.91,264.89 L 823.83,265.00 L 825.74,266.59 L 827.66,269.38 L 829.57,271.29 L 831.48,272.35 L 833.40,274.69 L 835.31,278.46 L 837.23,280.82 L 839.14,280.46 L 841.05,280.61 L 842.97,285.08 L 844.88,292.99 L 846.80,300.19 L 848.71,305.22 L 850.62,310.42 L 852.54,317.54 L 854.45,325.35 L 856.37,331.72 L 858.28,336.38 L 860.19,342.00 L 862.11,351.59 L 864.02,364.09 L 841.53,394.39 L 832.92,395.91 L 828.61,400.46 Z" fill="#9aad5b" stroke="#7f9147" stroke-width="0.5" opacity="0.95"/>
<rect x="815.5897915572144" y="395.9062261765414" width="8.820416885571078" height="104.0937738234586" fill="#8b6f47" stroke="#6b5637" stroke-width="0.5"/>
<text x="820" y="540" text-anchor="middle" font-size="14" font-weight="bold" fill="#333">Li</text>
<text x="820" y="556" text-anchor="middle" font-size="11" fill="#666">Linde</text>
<text x="820" y="570" text-anchor="middle" font-size="10" fill="#999">32m</text>
</svg>